Coordinates
version=1
nRows=54
nColumns=12
inDegrees=yes

Units are S.I. units (second, meters, Newtons, ...)
Angles are in degrees

endheader
time	SC_y	SC_z	SC_x	AC_y	AC_z	AC_x	GH_y	GH_z	GH_yy	EL_x	PS_y
       0.0              -17.54         0.7535          84.05          38.04         -7.537          6.029          16.75          63.12          85.21          139.1          65.93
   0.02468              -17.55         0.7549          84.05          38.04         -7.535           6.03          16.74          63.12          85.21          139.1          65.94
   0.04937              -17.55         0.7565          84.04          38.04         -7.532          6.032          16.73          63.12          85.21          139.1          65.95
   0.07405              -17.56         0.7581          84.04          38.04         -7.529          6.034          16.71          63.12          85.21          139.1          65.96
   0.09874              -17.56         0.7598          84.03          38.04         -7.526          6.037          16.69          63.12          85.21          139.1          65.98
    0.1234              -17.57         0.7616          84.03          38.04         -7.523          6.039          16.68          63.12          85.21          139.0          65.99
    0.1481              -17.57         0.7636          84.02          38.04         -7.519          6.042          16.66          63.12          85.21          139.0           66.0
    0.1728              -17.58         0.7656          84.01          38.04         -7.515          6.044          16.64          63.12          85.21          139.0          66.02
    0.1975              -17.58         0.7679           84.0          38.04         -7.511          6.047          16.61          63.12          85.21          139.0          66.04
    0.2222              -17.59         0.7703           84.0          38.04         -7.507           6.05          16.59          63.12          85.21          139.0          66.05
    0.2468              -17.59         0.7728          83.99          38.04         -7.503          6.054          16.57          63.12          85.21          139.0          66.07
    0.2715               -17.6         0.7756          83.98          38.04         -7.498          6.057          16.54          63.12          85.21          139.0          66.09
    0.2962              -17.61         0.7786          83.97          38.04         -7.492          6.061          16.51          63.12          85.21          139.0          66.11
    0.3209              -17.62         0.7818          83.95          38.04         -7.487          6.065          16.48          63.12          85.21          139.0          66.13
    0.3456              -17.63         0.7853          83.94          38.04          -7.48           6.07          16.44          63.12          85.21          138.9          66.16
    0.3703              -17.64         0.7891          83.93          38.03         -7.474          6.075          16.41          63.12          85.21          138.9          66.19
    0.3949              -17.65         0.7932          83.92          38.03         -7.466           6.08          16.37          63.12          85.21          138.9          66.22
    0.4196              -17.66         0.7977           83.9          38.03         -7.458          6.086          16.32          63.12          85.21          138.9          66.25
    0.4443              -17.67         0.8026          83.88          38.03          -7.45          6.092          16.28          63.12          85.21          138.9          66.28
     0.469              -17.68          0.808          83.86          38.03          -7.44          6.099          16.22          63.12          85.21          138.8          66.32
    0.4937               -17.7         0.8138          83.84          38.03          -7.43          6.107          16.17          63.12          85.21          138.8          66.36
    0.5184              -17.71         0.8203          83.82          38.03         -7.418          6.115           16.1          63.12          85.21          138.8          66.41
     0.543              -17.73         0.8275           83.8          38.03         -7.405          6.125          16.03          63.12          85.21          138.7          66.46
    0.5677              -17.75         0.8354          83.77          38.03         -7.391          6.135          15.96          63.12          85.22          138.7          66.52
    0.5924              -17.78         0.8442          83.74          38.02         -7.375          6.146          15.87          63.12          85.22          138.7          66.58
    0.6171               -17.8          0.854           83.7          38.02         -7.358          6.159          15.78          63.12          85.22          138.6          66.65
    0.6418              -17.83         0.8651          83.66          38.02         -7.338          6.174          15.67          63.12          85.22          138.6          66.73
    0.6665              -17.86         0.8774          83.62          38.02         -7.316           6.19          15.55          63.12          85.22          138.5          66.82
    0.6912               -17.9         0.8914          83.57          38.02         -7.291          6.208          15.41          63.12          85.22          138.4          66.92
    0.7158              -17.94         0.9073          83.52          38.01         -7.263          6.228          15.26          63.12          85.22          138.4          67.03
    0.7405              -17.98         0.9255          83.45          38.01         -7.231          6.252          15.08          63.11          85.23          138.3          67.16
    0.7652              -18.03         0.9463          83.38          38.01         -7.193          6.279          14.88          63.11          85.23          138.2          67.31
    0.7899               -18.1         0.9703           83.3           38.0         -7.151           6.31          14.65          63.11          85.23          138.1          67.48
    0.8146              -18.17         0.9983           83.2           38.0         -7.101          6.347          14.37          63.11          85.23          137.9          67.68
    0.8393              -18.25          1.031          83.08          37.99         -7.042          6.389          14.06          63.11          85.24          137.8          67.92
    0.8639              -18.35          1.069          82.95          37.98         -6.974          6.439          13.68          63.11          85.24          137.6          68.19
    0.8886              -18.46          1.115          82.79          37.98         -6.892          6.499          13.24           63.1          85.25          137.4          68.52
    0.9133               -18.6           1.17           82.6          37.97         -6.794           6.57           12.7           63.1          85.25          137.1          68.91
     0.938              -18.77          1.237          82.36          37.96         -6.676          6.656          12.06           63.1          85.26          136.8          69.39
    0.9627              -18.98          1.318          82.08          37.94         -6.531          6.762          11.27          63.09          85.27          136.4          69.97
    0.9874              -19.23          1.418          81.73          37.92         -6.353          6.892           10.3          63.09          85.28          135.9          70.68
     1.012              -19.55          1.543          81.29           37.9          -6.13          7.054          9.082          63.08           85.3          135.3          71.58
     1.037              -19.95            1.7          80.74          37.87          -5.85          7.259          7.554          63.07          85.32          134.6           72.7
     1.061              -20.46            1.9          80.04          37.84         -5.494          7.518           5.61          63.06          85.34          133.6          74.13
     1.086              -21.11          2.156          79.15          37.79         -5.037          7.851          3.123          63.04          85.37          132.4          75.96
     1.111              -21.94          2.484           78.0          37.73         -4.452          8.278       -0.06952          63.02          85.41          130.9          78.31
     1.135              -23.01          2.903          76.53          37.66         -3.704          8.823         -4.147           63.0          85.46          128.9          81.31
      1.16              -24.35          3.431          74.69          37.57         -2.764          9.508         -9.274          62.97          85.52          126.4          85.09
     1.185              -25.98          4.073          72.44          37.45         -1.618          10.34         -15.52          62.93           85.6          123.3          89.69
      1.21              -27.87          4.818          69.84          37.32        -0.2902          11.31         -22.76          62.88          85.69          119.8          95.01
     1.234              -29.92          5.625          67.01          37.18          1.148          12.36         -30.61          62.84          85.78          116.0          100.8
     1.259              -31.97          6.431          64.19          37.03          2.586          13.41         -38.45          62.79          85.88          112.2          106.6
     1.284              -33.86          7.176          61.59           36.9          3.914          14.38         -45.69          62.75          85.97          108.6          111.9
     1.308               -35.5          7.819          59.34          36.79           5.06          15.21         -51.94          62.71          86.04          105.6          116.5
